<svg xmlns="http://www.w3.org/2000/svg" width="61" height="53" fill="none"><path fill="#fff" d="M60.5503 13.8203c0-7.9883-6.6199-13.3586-16.4748-13.3586H22.2383a.1082.1082 0 0 0-.1108.1107V2.178c0 .0553.0238.0949.0791.1107.609.166 4.6427 1.4157 4.6427 7.0313v6.1612c0 .0633.0554.1186.1187.1186h7.1736c.0633 0 .1186-.0553.1186-.1186V3.9417c0-.9254.7515-1.6688 1.6689-1.6688h4.8167c5.2912 0 12.1722 2.5863 12.1722 11.5553 0 7.6007-6.881 11.6898-12.1722 11.6898l-23.7196.0237c-9.6967 0-16.475 5.5206-16.475 13.4298 0 7.9883 6.6201 13.3586 16.475 13.3586h21.8451a.1047.1047 0 0 0 .1028-.1028v-1.6214c0-.0475-.0238-.087-.0712-.1028-.5932-.1582-4.6506-1.4079-4.6506-7.0313v-6.1771a.1047.1047 0 0 0-.1027-.1028H23.7173c-.1107 0-.1661.1266-.0949.2057l3.219 2.9105v8.534c0 .9254-.7514 1.6689-1.6688 1.6689h-4.8167c-5.2912 0-12.1722-2.5863-12.1722-11.5553 0-7.6008 6.881-11.6898 12.1722-11.6898l23.7196-.0237c9.6967 0 16.4748-5.5207 16.4748-13.4298v.0079Z"></path></svg>